<svg xmlns="http://www.w3.org/2000/svg" fill="none" viewBox="0 0 16 16" id="Github-Logo-2--Streamline-Logos-Block.svg" height="16" width="16"><desc>Github Logo 2 Streamline Icon: https://streamlinehq.com</desc><path fill="#ffffff" fill-rule="evenodd" d="M3.333333333333333 0.6666666666666666a2.6666666666666665 2.6666666666666665 0 0 0 -2.6666666666666665 2.6666666666666665v9.333333333333332a2.6666666666666665 2.6666666666666665 0 0 0 2.6666666666666665 2.6666666666666665h9.333333333333332a2.6666666666666665 2.6666666666666665 0 0 0 2.6666666666666665 -2.6666666666666665V3.333333333333333a2.6666666666666665 2.6666666666666665 0 0 0 -2.6666666666666665 -2.6666666666666665H3.333333333333333Zm1.21 3.4066666666666667a5.326666666666666 5.326666666666666 0 0 1 3.4546666666666668 -1.2686666666666666 5.326666666666666 5.326666666666666 0 0 1 1.6873333333333334 10.381333333333332c-0.27 0.05133333333333333 -0.3566666666666667 -0.106 -0.3566666666666667 -0.248v-1.4746666666666668a1.262 1.262 0 0 0 -0.364 -0.982c1.1866666666666665 -0.13133333333333333 2.432 -0.5806666666666667 2.432 -2.628a2.0573333333333332 2.0573333333333332 0 0 0 -0.5479999999999999 -1.4306666666666665 1.9133333333333333 1.9133333333333333 0 0 0 -0.05333333333333333 -1.409333333333333s-0.444 -0.14266666666666666 -1.4626666666666666 0.5466666666666666a5.040666666666667 5.040666666666667 0 0 0 -2.6679999999999997 0C5.648 4.870666666666667 5.199999999999999 5.013333333333333 5.199999999999999 5.013333333333333a1.9113333333333333 1.9113333333333333 0 0 0 -0.052 1.409333333333333 2.0599999999999996 2.0599999999999996 0 0 0 -0.5486666666666666 1.4293333333333333c0 2.042 1.244 2.498666666666667 2.4266666666666667 2.6333333333333333a1.1366666666666667 1.1366666666666667 0 0 0 -0.33866666666666667 0.71 1.1346666666666665 1.1346666666666665 0 0 1 -1.55 -0.44266666666666665 1.1186666666666665 1.1186666666666665 0 0 0 -0.816 -0.5486666666666666s-0.52 -0.006666666666666666 -0.036 0.32466666666666666c0.284 0.18066666666666667 0.4933333333333333 0.45733333333333337 0.5913333333333333 0.7786666666666666 0 0 0.306 1.0233333333333332 1.7879999999999998 0.702 0.002 0.33599999999999997 0.0013333333333333333 0.6193333333333333 0 0.7933333333333332l0 0.13333333333333333c0 0.13999999999999999 -0.08399999999999999 0.29666666666666663 -0.35 0.25A5.326666666666666 5.326666666666666 0 0 1 4.543333333333333 4.073333333333333Z" clip-rule="evenodd" stroke-width="1"></path></svg>